<?xml version="1.0" encoding="utf-8"?>
<!-- Generator: Adobe Illustrator 23.1.0, SVG Export Plug-In . SVG Version: 6.00 Build 0)  -->
<svg version="1.1" id="Слой_1" xmlns="http://www.w3.org/2000/svg" xmlns:xlink="http://www.w3.org/1999/xlink" x="0px" y="0px"
	 viewBox="0 0 1920 1080" style="enable-background:new 0 0 1920 1080;" xml:space="preserve">
<style type="text/css">
	.st0{fill:#42CC4B;}
</style>
<g>
	<path class="st0" d="M750.45,599.7c0-49.6,17.34-96.12,47.53-135.99c27.18-35.92,64.76-66.53,109.56-89.14
		c4.38-2.27,8.76-4.38,13.25-6.44c5.06-2.38,10.18-4.6,15.41-6.65c5.06-2.11,10.18-4.06,15.41-5.9c6.65-2.43,13.48-4.65,20.35-6.71
		c3.64-1.14,7.33-2.16,11.03-3.14c1.99-0.54,4.04-1.08,6.03-1.51c15.29-2.92,32.58-4.54,50.94-4.54c13.59,0,26.67,0.87,38.72,2.54
		h0.17c4.82,1.5,9.37,3.23,13.64,5.16c8.52,3.87,8.2,15.35-0.44,18.98c-32.49,13.67-61.38,32.43-85.29,55.1
		c-5.86,5.57-11.43,11.36-16.72,17.42c-0.23,0.22-0.4,0.43-0.57,0.7c-4.61,5.57-9.78,12.5-14.78,20.72
		c-5.4,8.98-8.93,16.55-10.8,21.04c-1.76,4.16-6.14,14.82-9.33,28.89c-0.06,0.27-0.11,0.49-0.17,0.76c-2.22,9.95-3.52,20.45-5,32.08
		c-0.06,0.32-0.06,0.65-0.11,0.92v0.22c-3.3,12.87-7.96,25.26-13.82,37c0-0.16-0.06-0.38,0-0.54c-1.19,2.54-2.56,5.3-4.15,8.33
		c-0.23,0.49-0.45,0.97-0.74,1.41c-0.06,0.11-0.11,0.22-0.17,0.27c-0.28,0.49-0.57,0.97-0.8,1.46c-1.25,2.16-2.56,4.27-3.92,6.38
		c-12.62,20.28-28.71,38.95-47.47,55.5l-0.17,0.16c-11.06,9.71-23.06,18.68-35.91,26.9c-0.44,0.25-0.88,0.5-1.32,0.75
		c-17.81,8.92-38.24,14.3-59.98,15c-4.39,0.14-8.38-2.42-10.13-6.25l0,0C757.61,662.18,750.45,631.56,750.45,599.7z"/>
	<path class="st0" d="M1170.45,479.65c0,49.6-17.34,96.12-47.53,135.99c-27.18,35.92-64.76,66.53-109.56,89.14
		c-4.38,2.27-8.76,4.38-13.25,6.44c-5.06,2.38-10.18,4.6-15.41,6.65c-5.06,2.11-10.18,4.06-15.41,5.9
		c-6.65,2.43-13.48,4.65-20.35,6.71c-3.64,1.14-7.33,2.16-11.03,3.14c-1.99,0.54-4.04,1.08-6.03,1.51
		c-15.29,2.92-32.58,4.54-50.94,4.54c-13.59,0-26.67-0.87-38.72-2.54h-0.17c-4.82-1.5-9.37-3.23-13.64-5.16
		c-8.52-3.87-8.2-15.35,0.44-18.98c32.49-13.67,61.38-32.43,85.29-55.1c5.86-5.57,11.43-11.36,16.72-17.42
		c0.23-0.22,0.4-0.43,0.57-0.7c4.61-5.57,9.78-12.5,14.78-20.72c5.4-8.98,8.93-16.55,10.8-21.04c1.76-4.16,6.14-14.82,9.33-28.89
		c0.06-0.27,0.11-0.49,0.17-0.76c2.22-9.95,3.52-20.45,5-32.08c0.06-0.32,0.06-0.65,0.11-0.92v-0.22c3.3-12.87,7.96-25.26,13.82-37
		c0,0.16,0.06,0.38,0,0.54c1.19-2.54,2.56-5.3,4.15-8.33c0.23-0.49,0.45-0.97,0.74-1.41c0.06-0.11,0.11-0.22,0.17-0.27
		c0.28-0.49,0.57-0.97,0.8-1.46c1.25-2.16,2.56-4.27,3.92-6.38c12.62-20.28,28.71-38.95,47.47-55.5l0.17-0.16
		c11.06-9.71,23.06-18.68,35.91-26.9c0.44-0.25,0.88-0.5,1.32-0.75c17.81-8.92,38.24-14.3,59.98-15c4.39-0.14,8.38,2.42,10.13,6.25
		l0,0C1163.29,417.18,1170.45,447.79,1170.45,479.65z"/>
</g>
</svg>
